<svg width="46" height="16" viewBox="0 0 46 16" fill="none" xmlns="http://www.w3.org/2000/svg">
<path d="M17.4708 1.16752L11.7423 15.2705H7.95969L5.05163 4.01586C4.87503 3.32265 4.72318 3.06869 4.19496 2.77663C3.33279 2.30069 1.91031 1.85462 0.659329 1.57762L0.742203 1.16776L6.83097 1.16776C7.60708 1.16776 8.30735 1.69449 8.48802 2.60568L10.0347 10.7662L13.7118 1.16752L17.4708 1.16752ZM32.3381 10.6658C32.3352 6.94368 27.2706 6.73863 27.2973 5.0759C27.3057 4.56987 27.7757 4.03185 28.8094 3.89452C29.3218 3.8261 30.7342 3.77389 32.3402 4.52566L32.9541 1.53506C32.0915 1.21667 30.9823 0.910034 29.6039 0.910034C26.067 0.910034 23.5873 2.82695 23.5797 5.57183C23.5668 7.60209 25.3718 8.73503 26.7308 9.40967C28.1289 10.1005 28.599 10.5445 28.5968 11.1625C28.5915 12.1085 27.491 12.5261 26.4608 12.5425C24.6624 12.5708 23.6162 12.0464 22.7823 11.652L22.1488 14.7416C22.9868 15.1327 24.5317 15.4739 26.1318 15.491C29.8911 15.4908 32.3409 13.5979 32.3381 10.6658ZM41.7003 15.2705H45.0098L42.0521 1.16752L38.9975 1.16752C38.3106 1.16752 37.7332 1.57527 37.4798 2.20217L32.1738 15.2705H35.9312L36.6671 13.1638L41.258 13.1638L41.7003 15.2705ZM37.6832 10.2734L39.5408 4.97832L40.6507 10.2734H37.6832ZM22.5837 1.16752L19.6937 15.2705H16.1155L19.0066 1.16752L22.5837 1.16752Z" fill="white"/>
</svg>
